name C:\Users\r0593348\3dpredictsim\Results\Batchsim_tmt_linear\Pog_s1_tmt_aCst_d02_k800_ig24.mot
datacolumns 128
datarows 4
range 0.53711027 0.56933689
endheader
time	pelvis_tilt	pelvis_list	pelvis_rotation	pelvis_tx	pelvis_ty	pelvis_tz	hip_flexion_l	hip_adduction_l	hip_rotation_l	hip_flexion_r	hip_adduction_r	hip_rotation_r	knee_angle_l	knee_angle_r	ankle_angle_l	ankle_angle_r	subtalar_angle_l	subtalar_angle_r	tmt_angle_l	tmt_angle_r	mtp_angle_l	mtp_angle_r	lumbar_extension	lumbar_bending	lumbar_rotation	arm_flex_l	arm_add_l	arm_rot_l	arm_flex_r	arm_add_r	arm_rot_r	elbow_flex_l	elbow_flex_r	pro_sup_l	pro_sup_r	glut_med1_l/activation	glut_med2_l/activation	glut_med3_l/activation	glut_min1_l/activation	glut_min2_l/activation	glut_min3_l/activation	semimem_l/activation	semiten_l/activation	bifemlh_l/activation	bifemsh_l/activation	sar_l/activation	add_long_l/activation	add_brev_l/activation	add_mag1_l/activation	add_mag2_l/activation	add_mag3_l/activation	tfl_l/activation	pect_l/activation	grac_l/activation	glut_max1_l/activation	glut_max2_l/activation	glut_max3_l/activation	iliacus_l/activation	psoas_l/activation	quad_fem_l/activation	gem_l/activation	peri_l/activation	rect_fem_l/activation	vas_med_l/activation	vas_int_l/activation	vas_lat_l/activation	med_gas_l/activation	lat_gas_l/activation	soleus_l/activation	tib_post_l/activation	flex_dig_l/activation	flex_hal_l/activation	tib_ant_l/activation	per_brev_l/activation	per_long_l/activation	per_tert_l/activation	ext_dig_l/activation	ext_hal_l/activation	ercspn_l/activation	intobl_l/activation	extobl_l/activation	glut_med1_r/activation	glut_med2_r/activation	glut_med3_r/activation	glut_min1_r/activation	glut_min2_r/activation	glut_min3_r/activation	semimem_r/activation	semiten_r/activation	bifemlh_r/activation	bifemsh_r/activation	sar_r/activation	add_long_r/activation	add_brev_r/activation	add_mag1_r/activation	add_mag2_r/activation	add_mag3_r/activation	tfl_r/activation	pect_r/activation	grac_r/activation	glut_max1_r/activation	glut_max2_r/activation	glut_max3_r/activation	iliacus_r/activation	psoas_r/activation	quad_fem_r/activation	gem_r/activation	peri_r/activation	rect_fem_r/activation	vas_med_r/activation	vas_int_r/activation	vas_lat_r/activation	med_gas_r/activation	lat_gas_r/activation	soleus_r/activation	tib_post_r/activation	flex_dig_r/activation	flex_hal_r/activation	tib_ant_r/activation	per_brev_r/activation	per_long_r/activation	per_tert_r/activation	ext_dig_r/activation	ext_hal_r/activation	ercspn_r/activation	intobl_r/activation	extobl_r/activation	
          0.53711027	         -2.92927376	          2.10096282	         -5.32935536	          0.67138784	          0.85860832	          0.00210191	         31.71869555	          3.00365815	         -2.19099320	        -17.94682657	         -1.65162746	          7.13941411	        -15.78455075	         -7.30478270	          6.34962438	          0.48559093	         -1.41437883	         11.50099887	          0.04517837	          1.26809144	         -0.11572627	         21.29222171	         -2.06495265	         -0.58794329	          1.83195815	         -8.52001447	        -13.52100295	          5.99118700	          6.69914305	        -13.45483790	         16.00484141	         15.50412968	         36.54684871	         86.51662706	         86.51662706	          0.05000050	          0.05000034	          0.05013354	          0.05000031	          0.05000035	          0.05000086	          0.05895180	          0.05895175	          0.15828197	          0.05000055	          0.05000079	          0.10696371	          0.16839788	          0.18849202	          0.16568615	          0.10297184	          0.05895125	          0.05046564	          0.05895275	          0.05003341	          0.06950618	          0.10634887	          0.05000038	          0.05000050	          0.22725571	          0.05358448	          0.05000223	          0.05000042	          0.12008414	          0.12576689	          0.10358593	          0.05895173	          0.05259288	          0.05895182	          0.05000007	          0.05000100	          0.05000141	          0.50286824	          0.34877008	          0.20211813	          0.26779481	          0.55669467	          0.22344109	          0.06575824	          0.10382962	          0.10570129	          0.30495243	          0.10413931	          0.07762583	          0.34005701	          0.22550234	          0.10980725	          0.05000227	          0.05000024	          0.05000016	          0.07904807	          0.11223345	          0.05767044	          0.05000054	          0.05000047	          0.05000100	          0.05000079	          0.31524499	          0.05000611	          0.05000047	          0.05000260	          0.05000179	          0.05000136	          0.34711343	          0.58135172	          0.05000011	          0.05000038	          0.05000026	          0.18671913	          0.06590088	          0.05003706	          0.05018161	          0.31221737	          0.42162073	          0.29657387	          0.26549955	          0.28079444	          0.35707861	          0.05000002	          0.06747501	          0.17556482	          0.05000022	          0.05000005	          0.05000014	          0.05000001	          0.05000002	          0.05000004	
          0.54785248	         -2.92351228	          2.20387046	         -5.59628369	          0.68749918	          0.85755181	          0.00189608	         31.09551173	          3.40063023	         -1.99180890	        -17.72757065	         -1.95012992	          6.91489486	        -15.64137407	         -9.37872455	          5.77978392	         -0.34750827	         -1.89253177	         12.46830977	          0.05221783	          1.20790480	         -0.10088562	         22.35383962	         -1.87503014	         -0.82755270	          1.90766811	         -9.50344547	        -13.51867664	          5.82904478	          6.51254228	        -13.46631715	         16.24844100	         15.34165806	         37.62305288	         86.51662706	         86.51662706	          0.05000022	          0.05000042	          0.05000021	          0.05000054	          0.05000054	          0.05000035	          0.05000005	          0.05000009	          0.13424694	          0.05000013	          0.05001194	          0.09072182	          0.14282692	          0.29792458	          0.20148856	          0.08733692	          0.05000020	          0.05000375	          0.05000107	          0.05895101	          0.05895197	          0.11163190	          0.05000057	          0.05000430	          0.54972055	          0.13162568	          0.09160886	          0.06950658	          0.22309389	          0.22633781	          0.19243212	          0.05000000	          0.05000002	          0.05000000	          0.05243029	          0.06950600	          0.05491822	          0.57547700	          0.33948910	          0.21325521	          0.44083409	          0.58954635	          0.21726608	          0.05577286	          0.08806310	          0.08965056	          0.25864547	          0.08832578	          0.06583858	          0.28841946	          0.19125987	          0.09313307	          0.05001378	          0.05000064	          0.05000136	          0.06704464	          0.09519107	          0.14845118	          0.10427118	          0.06950681	          0.05006522	          0.05804024	          0.26737519	          0.09572477	          0.06080302	          0.05000275	          0.05000164	          0.05000187	          0.29440431	          0.51658512	          0.05037213	          0.06853557	          0.05895207	          0.15836590	          0.13397239	          0.15835806	          0.13604107	          0.26480716	          0.35759764	          0.25153913	          0.22518364	          0.23815629	          0.30285653	          0.05000003	          0.05722899	          0.14890584	          0.05000010	          0.05000003	          0.05000015	          0.05000009	          0.06950640	          0.05000006	
          0.55859469	         -2.91365851	          2.30696871	         -5.83916558	          0.70389848	          0.85646340	          0.00170871	         30.31483858	          3.73286136	         -1.71855368	        -17.43631664	         -2.23975517	          6.67766406	        -15.96104888	        -11.57737736	          5.22872739	         -1.33702617	         -2.39948906	         13.37368041	         -0.04070672	          1.12599694	         -0.15128066	         23.25682380	         -1.66348445	         -1.07368153	          1.97288296	        -10.50228023	        -13.52182298	          5.71402960	          6.24485088	        -13.47735532	         16.42744285	         15.21498960	         38.66847132	         86.51662706	         86.51662706	          0.29933936	          0.05000014	          0.31612068	          0.05000060	          0.05000039	          0.28652446	          0.08826536	          0.07748296	          0.13486711	          0.05000020	          0.05000050	          0.08195109	          0.20873844	          0.25268495	          0.17089332	          0.12214114	          0.05000085	          0.06943454	          0.13719024	          0.05000012	          0.05000020	          0.09468072	          0.05895181	          0.05040534	          0.46624551	          0.11163841	          0.17361246	          0.05895202	          0.18921713	          0.19196847	          0.16321135	          0.05895182	          0.05895182	          0.05895183	          0.05895173	          0.05895175	          0.05895183	          0.48809091	          0.34060821	          0.18087252	          0.37389435	          0.61968690	          0.18427428	          0.05000005	          0.09662359	          0.07603713	          0.36731217	          0.07491353	          0.05584109	          0.24462322	          0.16221712	          0.07899085	          0.05000212	          0.05000048	          0.05000042	          0.05686396	          0.08073658	          0.15621836	          0.17755472	          0.05895291	          0.05895121	          0.05641595	          0.22677520	          0.08296780	          0.05447526	          0.05019318	          0.05504006	          0.05895025	          0.24969912	          0.48754085	          0.05895169	          0.05812880	          0.05000026	          0.13431806	          0.11362977	          0.13431179	          0.11538358	          0.22459619	          0.30329644	          0.21334291	          0.19098954	          0.20199239	          0.25686786	          0.05000002	          0.05000056	          0.19749366	          0.05000008	          0.05000007	          0.05000014	          0.06053580	          0.05895186	          0.05000133	
          0.56933689	         -2.90139683	          2.40847025	         -6.05056649	          0.72040988	          0.85535403	          0.00151023	         29.39709011	          4.02491546	         -1.43781378	        -17.04426464	         -2.51612388	          6.43740320	        -16.27728324	        -13.93258139	          4.84269525	         -2.44393752	         -2.92054058	         14.20907502	         -0.01981910	          1.01615953	         -0.15760557	         23.90780479	         -1.44803103	         -1.32187481	          2.02859807	        -11.47016836	        -13.52874035	          5.66435687	          5.92332772	        -13.49367494	         16.55769059	         15.09254314	         39.66878841	         86.51662706	         86.51662706	          0.34992760	          0.30315549	          0.37835167	          0.18024734	          0.18200147	          0.24301608	          0.07486247	          0.11465898	          0.11438761	          0.08194625	          0.05000245	          0.06950686	          0.17704154	          0.21431507	          0.14834110	          0.15552141	          0.05000025	          0.05889129	          0.11635902	          0.22922587	          0.17138616	          0.13856006	          0.05000013	          0.05000011	          0.39544618	          0.09468636	          0.14724971	          0.05000017	          0.16048531	          0.22956413	          0.16413411	          0.05000004	          0.05000007	          0.05000000	          0.05000000	          0.05000032	          0.05000018	          0.61489769	          0.36670666	          0.18393765	          0.63516771	          0.66527383	          0.33970948	          0.07479736	          0.08195132	          0.06449089	          0.31153608	          0.06353793	          0.05000004	          0.31921738	          0.13758453	          0.06699614	          0.06758272	          0.05000014	          0.05000012	          0.05000018	          0.06847770	          0.15649032	          0.15059327	          0.05000111	          0.05000077	          0.05000041	          0.20192963	          0.07037158	          0.05000038	          0.05000081	          0.05000050	          0.05000037	          0.21178236	          0.43818334	          0.05000006	          0.05000029	          0.05000017	          0.11392191	          0.09878510	          0.11392088	          0.11392129	          0.19049126	          0.25724088	          0.18094679	          0.16198781	          0.17131996	          0.21786256	          0.09992236	          0.14691366	          0.16750505	          0.05000153	          0.16527104	          0.05000104	          0.09118127	          0.05000002	          0.05000003	
